<svg width="642" height="145" viewBox="0 0 642 145" fill="none" xmlns="http://www.w3.org/2000/svg">
<path d="M219.541 90.4956C223.139 90.4956 225.983 89.4204 228.072 87.2701C230.162 85.1197 231.206 82.4172 231.206 79.1626C231.206 75.8499 230.162 73.2055 228.072 71.2295C225.983 69.2535 223.458 67.6844 220.498 66.522C217.538 65.3015 214.579 64.0229 211.619 62.6862C208.659 61.3495 206.134 59.4316 204.045 56.9326C201.955 54.4335 200.911 51.3532 200.911 47.6918C200.911 42.7518 202.362 38.916 205.264 36.1845C208.165 33.3948 212.112 32 217.103 32C219.715 32 222.646 32.494 225.896 33.482C229.146 34.47 231.032 34.964 231.555 34.964C233.238 34.964 234.224 33.976 234.514 32H235.559V51.0917H234.166C233.296 45.803 231.526 41.5894 228.856 38.4511C226.186 35.2546 222.53 33.6564 217.887 33.6564C214.753 33.6564 212.228 34.5862 210.313 36.446C208.456 38.2477 207.527 40.6886 207.527 43.7689C207.527 46.791 208.572 49.2901 210.661 51.2661C212.75 53.2421 215.275 54.8403 218.235 56.0608C221.195 57.2231 224.155 58.4727 227.115 59.8094C230.075 61.1461 232.599 63.064 234.689 65.563C236.778 68.0621 237.823 71.1424 237.823 74.8038C237.823 79.9763 235.994 84.1608 232.338 87.3572C228.682 90.5537 224.126 92.152 218.67 92.152C216 92.152 213.157 91.658 210.139 90.67C207.179 89.682 205.438 89.188 204.915 89.188C203.232 89.188 202.246 90.176 201.955 92.152H200.911L200.04 70.7937H201.433C203.174 83.9283 209.21 90.4956 219.541 90.4956Z" fill="#101010"/>
<path d="M287.524 46.2098V91.0187H286.131C284.216 91.0187 282.648 90.4084 281.43 89.188C280.269 87.9675 278.702 85.6428 276.729 82.2138L253.746 42.6356H253.398V77.9421C253.398 82.1848 254.181 85.0906 255.748 86.6598C257.373 88.229 260.304 89.0136 264.541 89.0136H265.15V90.4084H240.252V89.0136C244.489 89.0136 247.449 88.229 249.132 86.6598C250.815 85.0325 251.656 82.1266 251.656 77.9421V39.0613C250.089 36.3879 247.042 35.0512 242.516 35.0512V33.7435H251.569C254.355 33.7435 256.445 34.2375 257.837 35.2255C259.288 36.1554 260.739 37.8408 262.19 40.2818L285.26 79.9472H285.783V46.2098C285.783 41.9672 284.97 39.0613 283.345 37.4921C281.778 35.923 278.876 35.1384 274.639 35.1384H274.03V33.7435H298.928V35.1384C294.691 35.1384 291.731 35.952 290.048 37.5793C288.365 39.1485 287.524 42.0253 287.524 46.2098Z" fill="#101010"/>
<path d="M368.321 33.7435V35.1384H361.096V89.0136H368.321V90.4084H345.687V89.0136H352.042V39.1485H351.52L334.718 89.6238H334.369C332.686 89.6238 331.352 89.0136 330.365 87.7931C329.436 86.5726 328.566 84.8291 327.753 82.5625L311.474 39.1485H311.038V77.9421C311.038 82.1848 311.822 85.0906 313.389 86.6598C315.014 88.229 317.945 89.0136 322.182 89.0136H322.791V90.4084H297.893V89.0136C302.13 89.0136 305.09 88.229 306.773 86.6598C308.456 85.0325 309.297 82.1266 309.297 77.9421V38.6254C309.181 37.2306 308.63 36.3007 307.643 35.8358C306.715 35.3127 305.38 35.0512 303.639 35.0512H299.721V33.7435H319.483L336.111 78.5524H336.633L351.52 33.7435H368.321Z" fill="#101010"/>
<path d="M395.61 90.4084V89.0136H401.965V35.1384H395.61V33.7435H437.048V52.7481H435.655C435.655 48.9123 435.452 45.9483 435.046 43.856C434.698 41.7638 433.885 40.0203 432.609 38.6254C431.39 37.1725 429.736 36.2426 427.646 35.8358C425.557 35.3708 422.626 35.1384 418.854 35.1384H411.019V61.0299H415.633C419.811 61.0299 422.684 60.2453 424.251 58.6761C425.818 57.0488 426.602 54.1138 426.602 49.8712H428.082V73.8448H426.602C426.602 69.5441 425.818 66.5801 424.251 64.9528C422.684 63.2674 419.811 62.4247 415.633 62.4247H411.019V89.0136H418.244V90.4084H395.61Z" fill="#101010"/>
<path d="M443.984 90.4084V89.0136H450.339V35.1384H443.984V33.7435H485.858V51.8763H484.465C484.465 44.844 483.362 40.3108 481.157 38.2767C479.009 36.1845 474.366 35.1384 467.228 35.1384H459.393V60.1581H464.007C468.185 60.1581 471.058 59.3735 472.625 57.8043C474.192 56.177 474.976 53.2421 474.976 48.9995H476.456V72.9731H474.976C474.976 68.6724 474.192 65.7083 472.625 64.081C471.058 62.3956 468.185 61.5529 464.007 61.5529H459.393V89.0136H466.444C470.855 89.0136 474.25 88.7811 476.63 88.3162C479.009 87.8512 480.954 86.8342 482.463 85.265C483.972 83.6958 484.958 81.7489 485.422 79.4242C485.945 77.0413 486.322 73.5833 486.554 69.0501H487.947L487.077 90.4084H443.984Z" fill="#101010"/>
<path d="M540.106 46.2098V91.0187H538.713C536.798 91.0187 535.231 90.4084 534.012 89.188C532.851 87.9675 531.284 85.6428 529.311 82.2138L506.328 42.6356H505.98V77.9421C505.98 82.1848 506.764 85.0906 508.331 86.6598C509.956 88.229 512.886 89.0136 517.123 89.0136H517.733V90.4084H492.835V89.0136C497.071 89.0136 500.031 88.229 501.714 86.6598C503.397 85.0325 504.239 82.1266 504.239 77.9421V39.0613C502.672 36.3879 499.625 35.0512 495.098 35.0512V33.7435H504.152C506.938 33.7435 509.027 34.2375 510.42 35.2255C511.871 36.1554 513.322 37.8408 514.773 40.2818L537.843 79.9472H538.365V46.2098C538.365 41.9672 537.552 39.0613 535.927 37.4921C534.36 35.923 531.459 35.1384 527.222 35.1384H526.612V33.7435H551.511V35.1384C547.274 35.1384 544.314 35.952 542.631 37.5793C540.948 39.1485 540.106 42.0253 540.106 46.2098Z" fill="#101010"/>
<path d="M561.88 35.1384H555.525V33.7435H578.159V35.1384H570.934V89.0136H578.159V90.4084H555.525V89.0136H561.88V35.1384Z" fill="#101010"/>
<path d="M637.838 33.8307V35.2255C635.11 35.3418 632.818 35.923 630.96 36.9691C629.103 37.9571 627.507 39.7587 626.172 42.374L616.857 60.5068L634.355 89.0136H641.581V90.4084H617.902V89.0136H624.257L606.933 60.9427L598.401 76.896C596.95 79.6857 596.225 82.0685 596.225 84.0445C596.225 86.0205 596.921 87.3572 598.314 88.0547C599.765 88.694 601.854 89.0136 604.582 89.0136H605.279V90.4084H582.644V89.0136C585.372 88.8974 587.664 88.3452 589.521 87.3572C591.379 86.3111 592.975 84.4804 594.31 81.8651L605.975 59.1991L591.176 35.1384H584.82V33.7435H608.5V35.1384H601.274L615.9 58.9376L622.081 47.3431C623.532 44.5535 624.257 42.1706 624.257 40.1946C624.257 38.2186 623.532 36.911 622.081 36.2717C620.688 35.5742 618.627 35.2255 615.9 35.2255H615.203V33.8307H637.838Z" fill="#101010"/>
<path d="M200.04 134.728V112.613H203.788L211.098 127.295L218.408 112.613H222.156V134.728H218.255V121.52L211.835 134.728H210.361L203.941 121.52V134.728H200.04Z" fill="#101010"/>
<path d="M226.467 134.728L233.224 112.613H239.459L246.217 134.728H241.917L235.896 115.223H236.695L230.767 134.728H226.467ZM230.521 130.121V126.22H242.193V130.121H230.521Z" fill="#101010"/>
<path d="M250.505 134.728V112.613H257.662C257.836 112.613 258.195 112.618 258.737 112.628C259.28 112.638 259.802 112.674 260.304 112.735C262.085 112.95 263.596 113.57 264.834 114.594C266.073 115.618 267.015 116.918 267.66 118.495C268.305 120.071 268.628 121.797 268.628 123.67C268.628 125.544 268.305 127.269 267.66 128.846C267.015 130.423 266.073 131.723 264.834 132.747C263.596 133.771 262.085 134.39 260.304 134.605C259.802 134.667 259.28 134.702 258.737 134.713C258.195 134.723 257.836 134.728 257.662 134.728H250.505ZM254.744 130.796H257.662C257.939 130.796 258.312 130.791 258.783 130.781C259.254 130.761 259.679 130.714 260.058 130.643C261.02 130.448 261.804 129.998 262.408 129.291C263.022 128.585 263.473 127.735 263.759 126.742C264.056 125.749 264.205 124.725 264.205 123.67C264.205 122.565 264.051 121.515 263.744 120.522C263.447 119.529 262.991 118.689 262.377 118.003C261.763 117.317 260.99 116.882 260.058 116.698C259.679 116.616 259.254 116.57 258.783 116.56C258.312 116.549 257.939 116.544 257.662 116.544H254.744V130.796Z" fill="#101010"/>
<path d="M273.848 134.728V112.613H288.285V116.514H278.026V121.244H286.442V125.145H278.026V130.827H288.285V134.728H273.848Z" fill="#101010"/>
<path d="M301.187 134.728V112.613H314.702V116.79H305.364V121.582H312.859V125.759H305.364V134.728H301.187Z" fill="#101010"/>
<path d="M319.01 134.728V112.613H328.348C328.563 112.613 328.85 112.623 329.208 112.643C329.577 112.654 329.904 112.684 330.191 112.735C331.512 112.94 332.592 113.375 333.431 114.041C334.281 114.706 334.906 115.546 335.305 116.56C335.704 117.563 335.904 118.684 335.904 119.923C335.904 121.776 335.443 123.363 334.522 124.684C333.6 125.994 332.157 126.803 330.191 127.11L328.348 127.233H323.188V134.728H319.01ZM331.481 134.728L327.119 125.728L331.419 124.899L336.211 134.728H331.481ZM323.188 123.332H328.164C328.379 123.332 328.614 123.322 328.87 123.302C329.126 123.281 329.362 123.24 329.577 123.179C330.14 123.025 330.575 122.769 330.882 122.411C331.189 122.042 331.399 121.638 331.512 121.198C331.634 120.747 331.696 120.322 331.696 119.923C331.696 119.524 331.634 119.104 331.512 118.664C331.399 118.213 331.189 117.809 330.882 117.45C330.575 117.082 330.14 116.821 329.577 116.667C329.362 116.606 329.126 116.565 328.87 116.544C328.614 116.524 328.379 116.514 328.164 116.514H323.188V123.332Z" fill="#101010"/>
<path d="M350.615 135.189C348.403 135.189 346.493 134.708 344.886 133.745C343.289 132.783 342.055 131.436 341.185 129.706C340.325 127.976 339.895 125.964 339.895 123.67C339.895 121.377 340.325 119.365 341.185 117.635C342.055 115.904 343.289 114.558 344.886 113.596C346.493 112.633 348.403 112.152 350.615 112.152C352.826 112.152 354.73 112.633 356.328 113.596C357.935 114.558 359.169 115.904 360.029 117.635C360.899 119.365 361.334 121.377 361.334 123.67C361.334 125.964 360.899 127.976 360.029 129.706C359.169 131.436 357.935 132.783 356.328 133.745C354.73 134.708 352.826 135.189 350.615 135.189ZM350.615 131.257C352.017 131.278 353.184 130.976 354.116 130.351C355.048 129.726 355.744 128.841 356.205 127.694C356.676 126.547 356.911 125.206 356.911 123.67C356.911 122.135 356.676 120.804 356.205 119.677C355.744 118.551 355.048 117.676 354.116 117.051C353.184 116.426 352.017 116.104 350.615 116.083C349.212 116.063 348.045 116.365 347.113 116.99C346.181 117.614 345.48 118.5 345.009 119.647C344.548 120.793 344.318 122.135 344.318 123.67C344.318 125.206 344.548 126.537 345.009 127.663C345.48 128.79 346.181 129.665 347.113 130.29C348.045 130.914 349.212 131.237 350.615 131.257Z" fill="#101010"/>
<path d="M365.936 134.728V112.613H369.683L376.994 127.295L384.304 112.613H388.051V134.728H384.151V121.52L377.731 134.728H376.257L369.837 121.52V134.728H365.936Z" fill="#101010"/>
<path d="M409.938 135.189C408.3 135.189 406.82 134.902 405.499 134.329C404.189 133.745 403.109 132.916 402.259 131.841C401.419 130.755 400.887 129.465 400.662 127.971L405.023 127.326C405.331 128.595 405.965 129.573 406.928 130.259C407.89 130.945 408.986 131.288 410.214 131.288C410.9 131.288 411.566 131.18 412.211 130.965C412.856 130.75 413.383 130.433 413.793 130.013C414.213 129.593 414.422 129.076 414.422 128.462C414.422 128.237 414.387 128.022 414.315 127.817C414.254 127.602 414.146 127.402 413.992 127.218C413.839 127.034 413.619 126.86 413.332 126.696C413.056 126.532 412.702 126.384 412.272 126.25L406.528 124.561C406.098 124.438 405.597 124.264 405.023 124.039C404.46 123.814 403.913 123.491 403.38 123.071C402.848 122.652 402.402 122.099 402.044 121.413C401.696 120.716 401.522 119.841 401.522 118.786C401.522 117.302 401.895 116.068 402.643 115.085C403.39 114.102 404.389 113.37 405.638 112.889C406.887 112.408 408.269 112.172 409.784 112.183C411.31 112.203 412.672 112.464 413.87 112.966C415.068 113.468 416.071 114.2 416.88 115.162C417.689 116.114 418.272 117.281 418.631 118.664L414.115 119.432C413.951 118.715 413.649 118.111 413.209 117.619C412.769 117.128 412.242 116.754 411.627 116.498C411.023 116.242 410.388 116.104 409.723 116.083C409.068 116.063 408.448 116.155 407.865 116.36C407.291 116.554 406.82 116.841 406.452 117.22C406.093 117.599 405.914 118.049 405.914 118.571C405.914 119.053 406.063 119.447 406.36 119.754C406.656 120.051 407.03 120.292 407.481 120.476C407.931 120.66 408.392 120.814 408.863 120.937L412.702 121.981C413.276 122.135 413.911 122.339 414.607 122.595C415.303 122.841 415.969 123.189 416.603 123.64C417.248 124.08 417.776 124.663 418.185 125.39C418.605 126.117 418.815 127.039 418.815 128.155C418.815 129.343 418.564 130.382 418.062 131.273C417.571 132.153 416.905 132.885 416.066 133.469C415.226 134.042 414.274 134.472 413.209 134.759C412.155 135.045 411.064 135.189 409.938 135.189Z" fill="#101010"/>
<path d="M428.856 134.728V116.514H421.883V112.613H440.006V116.514H433.033V134.728H428.856Z" fill="#101010"/>
<path d="M453.501 135.189C451.289 135.189 449.38 134.708 447.772 133.745C446.175 132.783 444.941 131.436 444.071 129.706C443.211 127.976 442.781 125.964 442.781 123.67C442.781 121.377 443.211 119.365 444.071 117.635C444.941 115.904 446.175 114.558 447.772 113.596C449.38 112.633 451.289 112.152 453.501 112.152C455.712 112.152 457.617 112.633 459.214 113.596C460.821 114.558 462.055 115.904 462.915 117.635C463.785 119.365 464.221 121.377 464.221 123.67C464.221 125.964 463.785 127.976 462.915 129.706C462.055 131.436 460.821 132.783 459.214 133.745C457.617 134.708 455.712 135.189 453.501 135.189ZM453.501 131.257C454.903 131.278 456.071 130.976 457.002 130.351C457.934 129.726 458.63 128.841 459.091 127.694C459.562 126.547 459.798 125.206 459.798 123.67C459.798 122.135 459.562 120.804 459.091 119.677C458.63 118.551 457.934 117.676 457.002 117.051C456.071 116.426 454.903 116.104 453.501 116.083C452.098 116.063 450.931 116.365 449.999 116.99C449.067 117.614 448.366 118.5 447.895 119.647C447.434 120.793 447.204 122.135 447.204 123.67C447.204 125.206 447.434 126.537 447.895 127.663C448.366 128.79 449.067 129.665 449.999 130.29C450.931 130.914 452.098 131.237 453.501 131.257Z" fill="#101010"/>
<path d="M468.822 134.728V112.613H473.061L482.675 127.356V112.613H486.914V134.728H482.675L473.061 119.984V134.728H468.822Z" fill="#101010"/>
<path d="M492.735 134.728V112.613H507.172V116.514H496.912V121.244H505.329V125.145H496.912V130.827H507.172V134.728H492.735Z" fill="#101010"/>
<path d="M43.4754 144.364L48.4839 131.695C71.0714 131.597 116.836 131.695 119.193 131.695C121.549 131.695 124.692 140.239 125.969 144.658H136.575C136.575 139.65 131.861 138.766 131.861 138.766C131.861 138.53 131.567 137.882 131.272 136.704C130.879 135.132 130.447 131.636 131.861 130.222C145.767 126.922 154.94 98.5994 157.788 84.8505L105.935 87.2075L56.4386 84.8505L4.29102 72.1819C7.82645 79.2527 12.835 88.9752 16.665 103.706C21.5675 122.562 31.9852 128.552 38.1722 131.695L36.6991 138.766C36.6991 138.766 34.8136 138.825 33.1637 140.239C31.5138 141.653 32.4763 143.578 33.1637 144.364H43.4754Z" fill="#1B1B1B"/>
<path d="M8.20129 60.9717C15.6887 60.9717 23.2052 62.8717 29.3331 64.5215C36.9932 66.5838 62.6258 76.3066 87.0792 76.3066H152.779C156.315 76.2085 163.503 77.0731 163.975 81.3154C164.446 85.5577 158.278 87.4041 155.136 87.7969C144.333 88.7789 116.347 90.5664 101.263 90.5664C86.1784 90.5664 65.9638 89.2243 53.7872 86.7891C40.5295 84.1375 12.0694 78.1332 4.29114 72.4766C2.52342 71.1999 -0.776644 67.9979 0.166138 65.4053C1.10899 62.8128 3.56618 60.9717 8.20129 60.9717ZM10.5499 66.082C9.51801 66.0031 9.2599 67.1757 10.2091 67.5879C16.9118 70.4977 28.1337 74.9518 37.8781 77.4854C49.6628 80.5494 72.0538 85.1738 86.1954 85.1738C101.474 85.1738 113.339 85.3351 128.031 84.2617C138.003 83.5332 147.607 82.6072 153.734 81.6416C154.841 81.4668 154.714 80.4318 153.593 80.4316H119.782C109.274 80.5298 88.6176 80.6673 80.3683 80.4316C70.0566 80.137 46.127 75.4226 30.8068 70.4141C22.031 67.5451 14.9471 66.4186 10.5499 66.082Z" fill="#1B1B1B"/>
<path d="M110.188 55.6836H54.2102V49.2012H110.188V55.6836ZM82.1995 0C84.6399 0.000139662 86.6182 1.97848 86.6184 4.41895C86.6184 6.46717 85.2248 8.18933 83.3342 8.69043C85.0525 14.2528 94.4033 30.6406 100.171 30.6406C104.813 30.6406 110.422 25.2844 113.207 22.1074C112.436 21.358 111.956 20.3107 111.956 19.1504C111.956 16.8725 113.802 15.0256 116.08 15.0254C118.358 15.0254 120.205 16.8724 120.205 19.1504C120.205 21.4283 118.358 23.2754 116.08 23.2754C115.813 23.2754 115.552 23.2487 115.299 23.2002C112.537 28.298 110.947 40.4977 110.483 46.2549H53.3264C53.7768 42.4243 50.6718 29.8544 48.5959 23.2637C48.5042 23.2698 48.4119 23.2754 48.3186 23.2754C46.0406 23.2754 44.1937 21.4283 44.1936 19.1504C44.1936 16.8724 46.0406 15.0254 48.3186 15.0254C50.5965 15.0255 52.4426 16.8725 52.4426 19.1504C52.4426 20.5189 51.7754 21.7302 50.7493 22.4805C53.2021 25.6856 59.3379 30.6406 64.2278 30.6406C70.5557 30.6404 77.4768 16.5535 80.8928 8.6416C79.09 8.08443 77.7795 6.4048 77.7795 4.41895C77.7797 1.9784 79.7589 0 82.1995 0Z" fill="#1B1B1B"/>
</svg>
